<svg xmlns="http://www.w3.org/2000/svg" xmlns:xlink="http://www.w3.org/1999/xlink" viewBox="0 0 307.26 224"><defs><style>.cls-1,.cls-2,.cls-3,.cls-4,.cls-5{fill-rule:evenodd;}.cls-1{fill:url(#GradientFill_1);}.cls-2{fill:#00629c;}.cls-3{fill:#129a80;}.cls-4,.cls-6{fill:#00af90;}.cls-5{fill:#81c45b;}</style><radialGradient id="GradientFill_1" cx="220.48" cy="52.97" r="82.57" gradientTransform="matrix(0.86, 0.5, -0.49, 0.84, 55.76, -102.31)" gradientUnits="userSpaceOnUse"><stop offset="0" stop-color="#00aee1"/><stop offset="0.23" stop-color="#00aade"/><stop offset="0.46" stop-color="#009ed3"/><stop offset="0.69" stop-color="#008ac2"/><stop offset="0.91" stop-color="#006fa9"/><stop offset="1" stop-color="#00629e"/></radialGradient></defs><g id="Layer_2" data-name="Layer 2"><g id="Layer_1-2" data-name="Layer 1"><path class="cls-1" d="M179.93,45.79c8.65-.27,17.53.06,26.08.54,1.33.08,5.19.55,6.19.1,1.87-.85,1.35-3.06.24-4.46l-12.53-14.5A130.56,130.56,0,0,0,181.6,12.18c-1.39-.93-3.33-1.66-3.58-3.29,1.09-1.73,3.94-1.4,5.8-.75a25.69,25.69,0,0,1,4.58,2.69,111.18,111.18,0,0,1,20.35,16.43L219.1,39.17c.79,1,2.55,3.12,4.7,2.29,1.29-.49,2.09-3.28,2.77-4.75a88.63,88.63,0,0,0,4.18-10.57c2.47-7.95,1.3-10.77,1.88-12.87a14,14,0,0,1,5,2.42c2,1.43,2.49,1.93,2.52,5.23.07,8.45-3.72,16.16-6.91,23.57-2.5,5.83,1.83,6.07,6.31,7.44C250.74,55.37,261.57,59.86,270,67c1.62,1.37,6.5,6.45,4.14,10-1.25,0-3.3-2-4.31-2.76-1.42-1-2.61-1.92-4.13-2.91-3-1.92-5.76-3.47-9-5.29-2.59-1.45-27.55-13.64-21.8-2.28,5,9.93,11.37,25.2,14.22,35.48.78,3.29,6.69,22.46,1.36,23.13-2.14.27-2.91-2.06-3.32-3.87-.62-2.73-3.8-15.8-4.7-16.63,0-3.64-8.13-23.74-10.1-28.06C231,71,227,62.58,223.8,63.88c-1.09.44-1.5,1.53-2.15,2.67-1.17,2-4.66,7.6-5.19,9-.91.8-16.47,28.16-18.37,31.87-2.8,5.47-6.91,3.32-8.33.77-1.2-2.15-.42-3.87.57-5.57,1.78-3.07,3.42-6,5.19-9.11,1.2-2.09,10.19-16.76,10.73-18.36.15-.08,9.34-15.24,8.61-17.88-1-3.45-6.91-2.82-10.44-3-2.64-.15-10.84-.84-13-.37,0,0-.13-.11-.15-.06l-9.82-.17c-3.4.12-6.7.1-10.13.24-3.21.13-17.74,1.23-19.56.53-3-1.13-3.1-4.42-.82-6.39,1.8-1.55,6.25-1.3,8.93-1.45,6.71-.39,13.35-.62,20-.84Zm74.8,51.74c.07-2.06-3.36-12.44-4.25-14.8l-5.39-13.67c7.95,2.06,20.48,8.38,26.22,13.5,1.52,1.35,3,3,5.07,2.82,4.69-.5,3-15.21-3.51-22.78-3.2-3.72-14.49-10.59-19.11-12.68l-11.51-4.7c1.54-5.68,8.44-19.31,3.47-25.63-2.3-2.91-5.19-5-8.76-7.36C235,11,228,6.47,225.4,8.53c-.31,1.59.1,4.37-.16,6.45a49.19,49.19,0,0,1-3.06,10.54l-2,4.54-.1.12-4.33-4.46c-8.42-8.44-14.31-13.23-25.23-19.5a23.2,23.2,0,0,0-14.71-2.75c-6.48,1.1-7.58,5.57-3,9.09,7.4,5.69,7.62,5.7,14.79,12,1.31,1.16,7.48,7.41,8.82,9.11a12.67,12.67,0,0,0,1.07,1.2l3.08,3.72-22.23,0a201.44,201.44,0,0,0-26,1.61c-4.44.53-7.26,2.31-9,4.8a10.7,10.7,0,0,0-1.41,10.72c3.69,8.5,13.09,6.55,20.89,6.19,9-.42,18.41-.62,27.53-.35l12.53.49a17.94,17.94,0,0,1-1.57,3,11.71,11.71,0,0,0-1.55,3.14C198.68,69,186.52,91.62,186,92.63c-1.82,3.37-5.42,9.27-5.28,13.91.31,10.84,13.85,17.69,21.7,9.32,1.81-1.93,5.62-9.18,7.14-11.92,1.34-2.4,13.77-23,14.21-24.19.46-.29.94-1.63,1.79-2.51l10,23.39c.61,2.63,1.89,5.87,2.75,8.57,1.3,4.09,3.65,14.38,5.28,17.2,5.67,9.85,15.63,2.55,14.74-10C258.15,113.79,255.84,98.77,254.73,97.53Z"/><path class="cls-2" d="M144.47,158c9.46-1.44,9.18,6.68,8,14-1,6.67-2.82,13-9.43,13.94-9.67,1.31-9.53-6.44-8.15-14,1.21-6.69,2.77-12.88,9.55-13.91Zm-25.42,57.53c4.9,1.36,7.67,2.21,13.38,2.23a36.93,36.93,0,0,0,13.25-2.14c7.54-3,12.2-8.16,15.1-15.79,2-5.32,4.09-19.4,5.24-25.87.79-4.43,1.53-8.78,2.31-13.17l2.19-13.06c-2.63-.07-7.91-.3-10,.49-3.65,1.36-4.17,4.15-5.35,5.38-.79-1-.95-2.89-3.59-4.64-5.62-3.72-14.48-2.68-19.52.33-6.32,3.78-9.19,12.11-10.85,21.42s-1.56,20.9,5.78,24.64c3.76,1.91,9.36,2,13.69.67a18.28,18.28,0,0,0,5.4-2.75,12.71,12.71,0,0,0,2.12-2,7.23,7.23,0,0,1,2-2c-.35,1.43-.92,2.1-1.78,5.58-4.06,16.6-18.59,10.1-23.76,11.85C121.2,207.93,118.83,211.05,119.05,215.52Z"/><path class="cls-2" d="M170.4,197.65H184c.47-3.52,1.23-7.08,1.84-10.5.31-1.71.62-3.46.92-5.2.94-5.44-.15-4.7,4.75-4.7,3.29,0,3.45,2.11,4.48,4.75,1.18,3,3.82,11,5.61,13,3,3.42,9.72,2.71,14.91,2.64-.38-1.58-7.71-17.63-9-20.58-1.19-2.69-2.8-4.47-.59-7.21l17.2-22.1a99.53,99.53,0,0,0-12.23.07c-3.6.64-5.18,3.29-7,5.72l-8.08,11c-2.26,3.07-2.54,2.48-7.44,2.52.46-4.66,2.83-16.34,3.86-22.21.89-5.07,2.81-10.85-2.17-14.26-2.91-2-4.7-1.6-8.57-1.66Z"/><path class="cls-2" d="M90.2,120.47l13.47,0,3.68-20.35c7.76.12,5.9-1.77,11.5,12.92,1.34,3.52,2.35,5.53,5.45,6.82,2.52,1,8.77.6,11.9.61-.41-1.63-7.63-17.42-9-20.56-2.59-6.07-2.8-4.11,3.62-12.49,1.45-1.89,2.92-3.69,4.37-5.62s2.85-3.62,4.28-5.48l4.36-5.73c-2.81,0-11-.32-13.15.32-3.26,1-5.08,4.27-6.81,6.61l-8.62,11.59c-1.27,1.21-4,.79-6.11.83.1-2.24,3.36-19.53,4-23.34.78-4.48,2.61-11.87-4.48-14.27-2-.67-4.23-.5-6.42-.5Z"/><path class="cls-2" d="M244.51,157.87c3.79-.77,7.05.58,8.18,3.49,1.18,3.07.56,7.88,0,11.16-1.17,6.81-3,13.81-9.45,14.86-9.79,1.58-9.54-6.8-8.16-14.54a40.79,40.79,0,0,1,2.67-9.59c1.41-3,3-4.63,6.75-5.38Zm-.24-11.07c-8,.8-13.09,3.41-16.53,8s-5.53,11.43-6.58,18.19c-2.83,18.15,3.82,27.23,22.32,25.52,7.69-.7,13.3-3.68,16.48-8.08,3.57-5,5.54-11,6.65-18.12C269.47,154,263.18,144.92,244.27,146.8Z"/><path class="cls-2" d="M88.33,153.52c-1.75-6.15-7.9-6.08-13-5.78-.54,1.35-5.83,32.83-6.59,37.2-.7,4-1.81,8.77-2.17,12.7H80.11c1.33-7.5,2.72-15.1,4.1-22.64s1.63-16,9.68-17.12c11.43-1.56,8.52,9.07,7.16,16.73-1,5.39-3.56,18.58-4.07,23l13.85,0c1.19-6.5,2.27-13.07,3.42-19.61,1.81-10.19,7.78-30.37-9.52-31.41C94.22,146,90,152.64,88.33,153.52Z"/><path class="cls-2" d="M72.36,99c-.54,5-1.22,8.89-4.3,11.11-2.48,1.78-9.11,3.06-11.9.54s-1.4-8.6,1.9-10.55C61,98.32,68.36,99,72.36,99ZM50.1,82.29c5.17-.82,19.77-3.87,23.39,1,1.6,2.14.56,5.45.33,8.06C66.93,92.1,59,90.2,51.25,93c-5.61,2-9.28,7-9.76,14.55-1.1,17.15,18.2,16.22,24.87,10.31,1.39-1.24,1.93-2.77,2.72-3.38,2.32,3.73,2.58,6,9.54,6,4.7,0,3.31,2,5.39-10.15,1.09-6.33,4.36-22.28,3.9-27.66-.83-9.77-8.44-12.84-18.6-12.84a70,70,0,0,0-14.19,1.39c-3.91.8-3,.27-3.78,4.16C50.93,77.57,50.31,80.09,50.1,82.29Z"/><path class="cls-2" d="M1.61,197.64h37.1c.62-2.68,1.71-4,.57-7.27A8.46,8.46,0,0,0,35,185.61c-3-1.32-13.33-.81-17.41-.75A71.45,71.45,0,0,1,18.9,177c1.13-6.34,7.19-38.17,6.81-40.9A8.28,8.28,0,0,0,22,130.27c-2.43-1.47-5.06-1.4-8.31-1.32Z"/><path class="cls-2" d="M3.45,108.83,0,121.29c22.1,3.92,33.39-6.17,37.32-24.49C39.17,88.2,40.53,79,42.09,70c1.79-10.36,4.5-18.29-10.5-18.15-.53,1.71-6,33.84-6.42,36.45-1.44,8.25-2.81,18-11.89,20.3C9.34,109.63,7.14,108.88,3.45,108.83Z"/><path class="cls-2" d="M43.79,197.66H57.27c.33-.62,8.94-48.1,8.86-50H52.58Z"/><path class="cls-3" d="M154.39,68.11c1.09,3.52,4.63,6.25,8.49,7.29,4.35,1.17,10.23.82,14.89.56-.5,1.66-3.13,6.27-4.1,8-3.34,5.94-6.57,11.77-3.28,18.69,1.12,2.37,3.8,6.27,5.43,7.14-.69-4.71-1.86-4.91,0-10a84.82,84.82,0,0,1,3.83-8.2c2.62-5.21,5.39-10.66,8.29-15.81.88-1.57,4.57-7,1.57-8C186.88,67,158,68,154.39,68.11Z"/><path class="cls-3" d="M261.84,114.32a1.24,1.24,0,0,0,.41-.35,10.93,10.93,0,0,0,2.15-3.76c1.53-4.12,1-9.5.22-13.71-.37-1.93-1.09-4.24-1.33-6,3.39,1.49,7,5.18,8.6,6.07,4.59,2.6,6.44-2.25,7.17-6-1.24.62-1.77,1.54-3.69.5-1.54-.83-5.92-5.86-14.69-10.28-8.4-4.23-6.38-.94-3.65,8.18.78,2.61,1.47,5.22,2.05,8A136,136,0,0,1,261.84,114.32Z"/><path class="cls-3" d="M219.3,19.4c1.65-2.78,3-9.88,2.51-13.82-1.55-.55-4.67-1.32-6.25-.52A3.12,3.12,0,0,0,214,7.16a11.26,11.26,0,0,0-.34,1.47,3,3,0,0,1-.49,1.59,102.81,102.81,0,0,0-10.42-6.51A32.07,32.07,0,0,0,185.62.11c-.83.08-1.14-.08-1.11.57s2.18.64,2.81.77a31.19,31.19,0,0,1,5.56,1.71c6,2.4,12.94,6.93,17.82,10.8l5.92,4.76A3,3,0,0,0,219.3,19.4Z"/><path class="cls-4" d="M53.66,141.89H67.19c1.45-3.94,2-7.43-.7-10.51-2.22-2.56-5.68-3.59-10.44-2.9C55.56,130.33,53.59,140.45,53.66,141.89Z"/><path class="cls-5" d="M261.51,47.14c.49.76,6.16,3.85,9.08,6.85,1.93,2,2,1.7,3.75,4.19,2.33,3.33,2.2,5.28,3.16,4.26.72-.77-3.7-9-4.83-10.77-3.37-5.13-6.36-6.9-11.33-10.24-1.12-.76-2.23-1.27-3.38-2.11.26-2.87,1.62-4.65-1.16-9.24-.74-1.23-3.93-5.58-5.44-6.29a36.77,36.77,0,0,1,.07,9c-.69,4.52-3.09,7.88,1.06,9.83C253.58,43.09,260.75,47,261.51,47.14Z"/><path class="cls-5" d="M225.08,109.26a40.82,40.82,0,0,0,4.21,9.65c1.43,2.22,4.46,5.57,8.41,5.27-.43-1.33-3.92-14.05-5-15.2,0-1.47-4-10.8-5-13.26-.59-1.43-1.12-3.27-2.41-4a2.23,2.23,0,0,0-2.4,1.29c-1.52,2.48-9.31,14.83-9.51,16.37-1.15.8-4.11,7.25-5.23,8.87-2,2.88-4.26,4.46-8.31,5.79,1.85,1.11,6.09,1.47,8.58,1,5.82-1.07,7.89-5.27,10.16-9.32,1.11-2,2.72-4.33,3.58-6.26.55-.64,1.35-2.08,1.86-2.84Z"/><path class="cls-5" d="M164.5,8.58c-3.58,2.35-4.38,6.73-1.09,10.21l8.24,7.46,1,.88c-.18.21,0,.48-1.42.52-5.32.16-12.24,0-16.49,4a9.34,9.34,0,0,0-2.51,3.71c9.52-.72,18.76-1.29,28.29-1.57,1.66,0,9,.5,4.66-3.71-1.73-1.67-2.52-3.09-5.21-5.46C175.72,20.81,164.57,13.22,164.5,8.58Z"/><path class="cls-6" d="M169.2,204.19H173l-3.36,19.43h-3.83Z"/><path class="cls-6" d="M187.88,204.19h3.83l-3.36,19.43h-2.91l-6.27-11.88-2.06,11.88h-3.83l3.36-19.43h2.91L185.84,216Z"/><path class="cls-6" d="M203,204.19a7.42,7.42,0,0,1,6.19,2.8,8.42,8.42,0,0,1,1.48,6.91,11.63,11.63,0,0,1-3.88,6.91,10.49,10.49,0,0,1-7.15,2.81H192l3.36-19.43ZM200.31,220a6.39,6.39,0,0,0,4.4-1.68,7.39,7.39,0,0,0,2.34-4.37,5.39,5.39,0,0,0-.83-4.37,4.51,4.51,0,0,0-3.82-1.68h-3.88l-2.1,12.1Z"/><path class="cls-6" d="M228.54,221.08a11.58,11.58,0,0,1-7.67,2.92,8.16,8.16,0,0,1-6.64-2.92,8.46,8.46,0,0,1-1.69-7.18,11.85,11.85,0,0,1,4.17-7.17,11.47,11.47,0,0,1,7.66-2.93,8.16,8.16,0,0,1,6.65,2.93,8.44,8.44,0,0,1,1.7,7.17A11.87,11.87,0,0,1,228.54,221.08Zm-11.18-2.61a5.12,5.12,0,0,0,4.16,1.79,7.23,7.23,0,0,0,4.78-1.79,7.46,7.46,0,0,0,2.59-4.57,5.42,5.42,0,0,0-1-4.58,5.11,5.11,0,0,0-4.16-1.8,7.19,7.19,0,0,0-4.78,1.8,7.52,7.52,0,0,0-2.6,4.58A5.36,5.36,0,0,0,217.36,218.47Z"/><path class="cls-6" d="M248.34,204.19h3.82l-3.36,19.43h-2.91l-6.27-11.88-2.06,11.88h-3.83l3.36-19.43H240L246.29,216Z"/><path class="cls-6" d="M256.88,220h8.19l-.64,3.67h-12l3.36-19.43h11.88l-.63,3.66h-8l-.71,4.14h7.35L265,215.6h-7.36Z"/><path class="cls-6" d="M273.69,224a7.61,7.61,0,0,1-4.63-1.28,5.49,5.49,0,0,1-2.17-3.52l3.6-1.91q.63,3,4,3a4.43,4.43,0,0,0,2.46-.58,2.19,2.19,0,0,0,1-1.48,1.47,1.47,0,0,0-.64-1.59,11.82,11.82,0,0,0-3.06-1.24,17,17,0,0,1-2.07-.78,7.11,7.11,0,0,1-1.62-1,3.34,3.34,0,0,1-1.09-1.66,5,5,0,0,1-.07-2.33,6.32,6.32,0,0,1,2.6-4.2,7.87,7.87,0,0,1,4.78-1.57,6.55,6.55,0,0,1,3.95,1.15,6,6,0,0,1,2.23,3.21L279.38,210a3.14,3.14,0,0,0-3.28-2.5,3.37,3.37,0,0,0-2,.54,2.09,2.09,0,0,0-.92,1.4,1.5,1.5,0,0,0,.5,1.49,9,9,0,0,0,2.72,1.23l1.27.43c.29.1.68.26,1.17.47a5.43,5.43,0,0,1,2,1.35,3,3,0,0,1,.68,1,4.3,4.3,0,0,1,.29,1.21,5.08,5.08,0,0,1-.06,1.54,6.37,6.37,0,0,1-2.69,4.27A9,9,0,0,1,273.69,224Z"/><path class="cls-6" d="M286.53,204.19h3.83L287,223.62h-3.83Z"/><path class="cls-6" d="M303.38,223.62l-.63-3.5h-8l-1.77,3.5h-4.13L299,204.19h4.75l3.49,19.43Zm-6.75-7.08h5.47l-1.43-7.94Z"/></g></g></svg>