<svg xmlns="http://www.w3.org/2000/svg" width="57.059" height="22.121" viewBox="0 0 57.059 22.121"><path d="M44.946,10.863a8.271,8.271,0,0,1,5.918,2.5,8.558,8.558,0,0,1,0,11.976,8.263,8.263,0,0,1-11.836,0,8.559,8.559,0,0,1,0-11.976,8.271,8.271,0,0,1,5.918-2.5Zm3.889,4.493a5.435,5.435,0,0,0-7.777,0,5.732,5.732,0,0,0,0,7.984,5.436,5.436,0,0,0,7.777,0,5.733,5.733,0,0,0,0-7.984Z" transform="translate(3.751 -10.863)" fill="#2f9fcb" fill-rule="evenodd"/><path d="M-12.482,22l-6.427,7.283a1.205,1.205,0,0,1-1.7.1,1.205,1.205,0,0,1-.1-1.7l6.524-7.393.011-.013,1.027-1.163,1.765-2a1.583,1.583,0,0,1,1.835,1.562L-12.475,22Z" transform="translate(21.016 -12.732)" fill="#2f9fcb" fill-rule="evenodd"/><path d="M-1.138,26.666a1.21,1.21,0,0,1-1.209,1.209,1.21,1.21,0,0,1-1.21-1.209V15.361h0A1.624,1.624,0,0,0-5.15,13.768a1.657,1.657,0,0,0-.23.016l2.059-2.333a1.209,1.209,0,0,1,.973-.491,1.21,1.21,0,0,1,1.209,1.209Z" transform="translate(16.329 -10.892)" fill="#2f9fcb" fill-rule="evenodd"/><path d="M15.161,26.412a1.427,1.427,0,1,1-2.854,0v-14.1a1.427,1.427,0,0,1,2.576-.848l9.806,11.11-.134-10.246A1.422,1.422,0,0,1,27.4,12.3l.184,14.079a1.422,1.422,0,0,1-2.487.959L15.161,16.081Z" transform="translate(11.028 -10.87)" fill="#2f9fcb" fill-rule="evenodd"/><path d="M7.346,26.412a1.427,1.427,0,1,1-2.854,0v-14.1a1.427,1.427,0,1,1,2.854,0Z" transform="translate(13.37 -10.87)" fill="#2f9fcb" fill-rule="evenodd"/><path d="M-8.856,30.457a1.617,1.617,0,0,1,1.618,1.618,1.617,1.617,0,0,1-1.618,1.617,1.617,1.617,0,0,1-1.617-1.617A1.617,1.617,0,0,1-8.856,30.457Z" transform="translate(17.856 -16.736)" fill="#e54d24" fill-rule="evenodd"/><g transform="translate(0.066 19.56)"><path d="M-20.922,41.339h.482V40.308c.021.008.641.062.807.066.335.008.8-.043.8-.789,0-.655-.44-.758-.8-.758h-1.29v2.513Zm.482-1.325v-.821h.778c.146,0,.34.043.345.395s-.149.426-.345.426Z" transform="translate(20.922 -38.805)" fill="#2f9fcb" fill-rule="evenodd"/><path d="M-16.1,41.338h.536l.239-.608h1.076l.233.608h.527L-14.5,38.825h-.534L-16.1,41.338Zm.912-.972.416-1,.4,1Z" transform="translate(19.475 -38.804)" fill="#2f9fcb" fill-rule="evenodd"/><path d="M-10.817,38.825l.943,1.693v.821h.482v-.821l1.02-1.693H-8.9l-.729,1.246-.663-1.246Z" transform="translate(17.893 -38.804)" fill="#2f9fcb" fill-rule="evenodd"/><path d="M-5.117,41.338h.478l.175-1.814.618,1.814h.529l.6-1.814.194,1.814h.478l-.266-2.514H-2.98l-.607,1.853-.618-1.853h-.668Z" transform="translate(16.185 -38.804)" fill="#2f9fcb" fill-rule="evenodd"/><path d="M1.736,40.87c0,.436.381.489.653.478,0,0,1.138-.041,1.288-.058v-.322h-1.2c-.121,0-.256,0-.258-.179v-.5L3.5,40.257v-.326L2.218,39.9v-.5c0-.093,0-.193.216-.193H3.678v-.325c-.17-.02-1.33-.055-1.33-.055-.284-.007-.612.095-.612.494Z" transform="translate(14.131 -38.805)" fill="#2f9fcb" fill-rule="evenodd"/><path d="M7.043,41.338h.486V39.575l1.36,1.763h.483V38.825H8.89V40.6L7.534,38.825H7.043Z" transform="translate(12.54 -38.804)" fill="#2f9fcb" fill-rule="evenodd"/><path d="M12.81,39.2h.846v2.139h.482V39.2h.871v-.374h-2.2Z" transform="translate(10.811 -38.804)" fill="#2f9fcb" fill-rule="evenodd"/><path d="M20.231,39.651c0,.244.06.638.77.638h.51c.241,0,.3.11.3.272v.171c0,.233-.259.251-.433.251-.387,0-.888-.025-1.055-.038v.315a6.055,6.055,0,0,0,1.128.1c.412,0,.842-.095.842-.635V40.53c0-.279-.113-.639-.695-.639h-.522c-.242,0-.364-.036-.364-.275v-.161c0-.274.175-.291.444-.284.1,0,.76.017,1.027.034v-.316a7.051,7.051,0,0,0-1.13-.092c-.466,0-.824.137-.824.634Z" transform="translate(8.587 -38.796)" fill="#2f9fcb" fill-rule="evenodd"/><path d="M25.65,40.091c0,1.144.461,1.253,1.209,1.253s1.2-.144,1.2-1.253c0-1.178-.484-1.291-1.2-1.291-.7,0-1.209.113-1.209,1.291Zm.482,0c0-.882.239-.917.727-.917s.721.045.721.917c0,.742-.174.879-.721.879C26.289,40.97,26.133,40.849,26.133,40.091Z" transform="translate(6.963 -38.797)" fill="#2f9fcb" fill-rule="evenodd"/><path d="M31.646,40.87c0,.388.3.468.609.468h1.258v-.374H32.386c-.12,0-.258,0-.258-.179V38.825h-.482Z" transform="translate(5.166 -38.804)" fill="#2f9fcb" fill-rule="evenodd"/><path d="M36.489,40.239c0,1.144.591,1.116,1.156,1.116.5,0,1.136-.007,1.136-1.116V38.825h-.487v1.415c0,.664-.251.742-.649.742-.454,0-.674-.055-.674-.742V38.825h-.482Z" transform="translate(3.714 -38.804)" fill="#2f9fcb" fill-rule="evenodd"/><path d="M42.2,39.2h.846v2.139h.482V39.2H44.4v-.374H42.2Z" transform="translate(2.001 -38.804)" fill="#2f9fcb" fill-rule="evenodd"/><rect width="0.483" height="2.514" transform="translate(48.13 0.02)" fill="#2f9fcb"/><path d="M51.049,40.091c0,1.144.46,1.253,1.209,1.253s1.2-.144,1.2-1.253c0-1.178-.484-1.291-1.2-1.291-.7,0-1.209.113-1.209,1.291Zm.482,0c0-.882.238-.917.726-.917s.721.045.721.917c0,.742-.174.879-.721.879C51.688,40.97,51.532,40.849,51.532,40.091Z" transform="translate(-0.65 -38.797)" fill="#2f9fcb" fill-rule="evenodd"/><path d="M57.044,41.338h.487V39.575l1.36,1.763h.483V38.825h-.483V40.6l-1.356-1.775h-.491Z" transform="translate(-2.447 -38.804)" fill="#2f9fcb" fill-rule="evenodd"/></g></svg>