<svg xmlns="http://www.w3.org/2000/svg" width="25.306" height="28.178" viewBox="0 0 25.306 28.178"><path d="M-6.8,25.267-17.506,37.4a2.008,2.008,0,0,1-2.833.174,2.008,2.008,0,0,1-.173-2.833L-9.644,22.423l.019-.021,1.711-1.938,2.94-3.33a2.636,2.636,0,0,1,3.057,2.6l-4.871,5.52Z" transform="translate(21.016 -9.938)" fill="#2f9fcb" fill-rule="evenodd"/><path d="M1.687,37.123A2.016,2.016,0,0,1-.328,39.138a2.016,2.016,0,0,1-2.016-2.015V18.291h0A2.705,2.705,0,0,0-5,15.638a2.761,2.761,0,0,0-.383.027l3.431-3.887A2.014,2.014,0,0,1-.328,10.96a2.015,2.015,0,0,1,2.015,2.015Z" transform="translate(23.62 -10.96)" fill="#2f9fcb" fill-rule="evenodd"/><path d="M-7.78,30.457a2.694,2.694,0,0,1,2.695,2.695A2.694,2.694,0,0,1-7.78,35.845a2.694,2.694,0,0,1-2.693-2.693A2.694,2.694,0,0,1-7.78,30.457Z" transform="translate(22.772 -7.714)" fill="#e54d24" fill-rule="evenodd"/></svg>